<svg xmlns="http://www.w3.org/2000/svg" viewBox="0 0 200 200">
  <path fill="white" d="M130 55c-3-2-8-4-12-3-5 1-9 5-10 10-1 3 0 6 2 9l-8 3c-5 2-10 6-13 11l-14 28c-8 2-15 6-20 12l-12 22c-3 6-4 13-2 19l3 10c2 4 6 7 10 8l5 1c4 0 8-2 10-5l8-14c3-6 8-10 14-12l6 8c-3 5-4 10-3 16l5 18c2 5 6 9 11 10l5 1c4 0 8-2 11-5l7-8c3-3 7-5 11-5l10 2c4 1 8 0 11-2l10-6c9-5 15-14 17-24l3-16c1-5 0-10-3-14l-8-10c-3-4-8-7-13-8l-9 2c-5 1-10 0-14-3l4-12c2-6 1-13-3-18l-10-12c-4-5-10-8-16-9z"/>
  <path fill="white" d="M110 30c-2-4-6-7-11-8l-10-1c-5 0-10 3-13 7l-6 10c-2 4-2 9 1 13l8 8c4 3 8 5 13 4l9-2c5-1 9-5 11-10l2-9c1-4 0-8-4-12z"/>
  <path fill="white" d="M55 85l-8 6c-6 4-10 10-11 17l-2 15c-1 6 1 12 5 16l15 14 8-5c3-2 6-6 7-10l2-12c1-5-1-10-5-14l-11-11z"/>
  <path fill="white" d="M30 130l-10 18c-3 6-4 13-2 20l3 12 12-3 5-6c2-3 3-7 2-11l-4-14c-2-5-4-9-6-16z"/>
</svg>
